<svg width="22" height="19" viewBox="0 0 22 19" fill="none" xmlns="http://www.w3.org/2000/svg">
    <path fill-rule="evenodd" clip-rule="evenodd" d="M17.922 13.8L21.092 16.97L20.032 18.031L3.06 1.061L4.12 0L6.86 2.738C8.18525 2.24818 9.58713 1.99828 11 2C15.808 2 19.972 4.848 22 9C21.0667 10.918 19.664 12.5691 17.922 13.8ZM9.824 5.703L14.297 10.176C14.5202 9.55184 14.5615 8.87715 14.4162 8.23042C14.2709 7.58369 13.9449 6.99153 13.4762 6.52282C13.0075 6.05411 12.4153 5.72814 11.7686 5.58283C11.1219 5.43752 10.4472 5.47885 9.823 5.702L9.824 5.703ZM15.141 15.263C13.8154 15.7526 12.4131 16.0022 11 16C6.192 16 2.028 13.152 0 9C0.933269 7.08201 2.33601 5.43091 4.078 4.2L7.703 7.824C7.47985 8.44816 7.43852 9.12285 7.58383 9.76958C7.72914 10.4163 8.05511 11.0085 8.52382 11.4772C8.99253 11.9459 9.58469 12.2719 10.2314 12.4172C10.8781 12.5625 11.5528 12.5212 12.177 12.298L15.141 15.262V15.263Z" fill="black"/>
</svg>
