<svg width="32" height="32" viewBox="0 0 32 32" fill="none" xmlns="http://www.w3.org/2000/svg">
    <path fill-rule="evenodd" clip-rule="evenodd" d="M29.3333 11.0574C29.3333 15.6921 25.5599 19.4494 20.9066 19.4494C20.0586 19.4494 18.1253 19.2547 17.1853 18.4734L16.0093 19.6441C15.3173 20.3334 15.5039 20.5361 15.8119 20.8694C15.9399 21.0094 16.0893 21.1707 16.2053 21.4014C16.2053 21.4014 17.1853 22.7667 16.2053 24.1334C15.6173 24.9134 13.9706 26.0054 12.0906 24.1334L11.6986 24.5227C11.6986 24.5227 12.8733 25.8894 11.8946 27.2561C11.3066 28.0361 9.73861 28.8161 8.36661 27.4507L6.99594 28.8161C6.05461 29.7534 4.90528 29.2067 4.44928 28.8161L3.27194 27.6454C2.17461 26.5521 2.81461 25.3681 3.27194 24.9121L13.4613 14.7654C13.4613 14.7654 12.4813 13.2054 12.4813 11.0587C12.4813 6.42408 16.2546 2.66675 20.9079 2.66675C25.5613 2.66675 29.3333 6.42408 29.3333 11.0574ZM20.9079 13.9854C21.6857 13.9868 22.4321 13.6793 22.9832 13.1305C23.5343 12.5817 23.8448 11.8365 23.8466 11.0587C23.8459 10.6735 23.7693 10.2922 23.6213 9.93661C23.4732 9.58099 23.2566 9.25802 22.9837 8.98613C22.7108 8.71424 22.387 8.49876 22.0309 8.35199C21.6747 8.20523 21.2932 8.13005 20.9079 8.13075C20.5227 8.13005 20.1412 8.20523 19.785 8.35199C19.4288 8.49876 19.1051 8.71424 18.8322 8.98613C18.5593 9.25802 18.3427 9.58099 18.1946 9.93661C18.0465 10.2922 17.97 10.6735 17.9693 11.0587C17.971 11.8365 18.2816 12.5817 18.8327 13.1305C19.3837 13.6793 20.1302 13.9868 20.9079 13.9854Z" fill="#323232"/>
</svg>
