<svg width="118" height="25" viewBox="0 0 118 25" fill="none" xmlns="http://www.w3.org/2000/svg">
    <path d="M105.629 0C98.9066 0 93.4547 5.4602 93.4547 12.1931C93.4547 18.9261 98.9066 24.3881 105.629 24.3881C112.352 24.3881 117.806 18.9279 117.806 12.1931C117.806 5.45832 112.354 0 105.629 0ZM111.459 18.0319C109.61 17.1791 107.621 16.7536 105.629 16.7536C103.638 16.7536 101.65 17.1791 99.7993 18.0319C100.649 16.18 101.078 14.1875 101.078 12.1931C101.078 10.1987 100.649 8.2081 99.7993 6.35429C103.501 8.05814 107.759 8.05814 111.459 6.35429C110.611 8.2081 110.183 10.2006 110.183 12.1931C110.183 14.1856 110.611 16.18 111.459 18.0319Z" fill="#2AD03C"/>
    <path d="M0 0.0918579V4.95224H6.82371V24.39H12.2831V4.95224H19.1068V0.0918579H0Z" fill="#231E1F"/>
    <path d="M21.6821 0.0918579V24.39H27.1414V0.0918579H21.6821Z" fill="#231E1F"/>
    <path d="M52.035 7.17343C51.6589 5.67014 51.0675 4.39178 50.2608 3.33836C49.4523 2.28493 48.4117 1.4808 47.1391 0.925975C45.8645 0.369272 44.3167 0.0918579 42.4976 0.0918579H29.8046V24.39H42.4976C44.2718 24.39 45.7953 24.1182 47.0698 23.5746C48.3443 23.031 49.3905 22.2382 50.2084 21.196C51.0281 20.1557 51.6308 18.8886 52.0182 17.3965C52.4038 15.9026 52.5965 14.2081 52.5965 12.3112C52.5965 10.4143 52.4094 8.67859 52.035 7.17343ZM46.8827 15.3815C46.7123 16.2737 46.4222 17.0254 46.0124 17.6383C45.6025 18.2513 45.0616 18.7217 44.3916 19.0441C43.7216 19.3684 42.885 19.5296 41.8837 19.5296H35.264V4.95224H41.8837C42.9074 4.95224 43.7609 5.12093 44.4421 5.45458C45.1252 5.7901 45.6661 6.27745 46.0629 6.91288C46.4615 7.55018 46.7404 8.32432 46.8995 9.23904C47.0586 10.1538 47.1391 11.1884 47.1391 12.345C47.1391 13.5015 47.053 14.4912 46.8827 15.3815Z" fill="#231E1F"/>
    <path d="M55.3271 0.0918579V24.39H60.7865V0.0918579H55.3271Z" fill="#231E1F"/>
    <path d="M90.8494 0.0899658V24.39H85.3901V8.57548L79.8765 24.39H74.4171V8.57173L68.9035 24.39H63.4442L71.9149 0.0899658H79.8765V8.73106L82.8897 0.0899658H90.8494Z" fill="#231E1F"/>
</svg>
